<mxfile host="app.diagrams.net" modified="2024-03-20T08:20:08.522Z" agent="Mozilla/5.0 (Windows NT 10.0; Win64; x64; rv:124.0) Gecko/20100101 Firefox/124.0" version="22.1.15" etag="6DUpjQ9y8cDEw1aiK05a" type="github">
  <diagram name="Страница — 1" id="Ek_PFL7T3efeq1Y66NRx">
    <mxGraphModel>
      <root>
        <mxCell id="0" />
        <mxCell id="1" parent="0" />
      </root>
    </mxGraphModel>
  </diagram>
</mxfile>
